<svg xmlns="http://www.w3.org/2000/svg" viewBox="0 0 24 24" role="img" aria-label="CryptoWallet icon">
  <defs>
    <linearGradient id="walletGradient" x1="0%" y1="0%" x2="100%" y2="100%">
      <stop offset="0%" stop-color="hsl(270, 75%, 60%)" />
      <stop offset="100%" stop-color="hsl(250, 60%, 58%)" />
    </linearGradient>
  </defs>
  <rect width="24" height="24" rx="6" fill="url(#walletGradient)" />
  <path
    d="M19 7V4a1 1 0 0 0-1-1H5a2 2 0 0 0 0 4h15a1 1 0 0 1 1 1v4h-3a2 2 0 0 0 0 4h3a1 1 0 0 0 1-1v-2a1 1 0 0 0-1-1"
    fill="none"
    stroke="#fff"
    stroke-width="1.8"
    stroke-linecap="round"
    stroke-linejoin="round"
  />
  <path
    d="M3 5v14a2 2 0 0 0 2 2h15a1 1 0 0 0 1-1v-4"
    fill="none"
    stroke="#fff"
    stroke-width="1.8"
    stroke-linecap="round"
    stroke-linejoin="round"
  />
</svg>
